/* XPM */
static char * neverball_xpm[] = {
"32 32 721 2",
"  	c None",
". 	c #BBC252",
"+ 	c #BBC251",
"@ 	c #BDC352",
"# 	c #C4C94D",
"$ 	c #C4C937",
"% 	c #E1E432",
"& 	c #E1E434",
"* 	c #C3C83F",
"= 	c #BFC44D",
"- 	c #C6CB42",
"; 	c #D8DC33",
"> 	c #D8DB38",
", 	c #C9CF47",
"' 	c #C1C74A",
") 	c #C2C74C",
"! 	c #C2C74B",
"~ 	c #C2C64C",
"{ 	c #C0C548",
"] 	c #C8CC3B",
"^ 	c #DEE034",
"/ 	c #D7DB30",
"( 	c #C7CE3C",
"_ 	c #C2C846",
": 	c #C3C945",
"< 	c #B3BA6D",
"[ 	c #BBC24F",
"} 	c #BCC34F",
"| 	c #BEC44E",
"1 	c #C9CD3A",
"2 	c #E0E435",
"3 	c #D5D831",
"4 	c #C5C934",
"5 	c #BFC54A",
"6 	c #C0C649",
"7 	c #C3C83E",
"8 	c #C9CE45",
"9 	c #C2C849",
"0 	c #C2C84A",
"a 	c #C3C849",
"b 	c #C4C849",
"c 	c #C4C94A",
"d 	c #C4C848",
"e 	c #C5C940",
"f 	c #CCD041",
"g 	c #C4C93E",
"h 	c #C2C942",
"i 	c #C2C844",
"j 	c #C3C943",
"k 	c #C0C662",
"l 	c #BEC34C",
"m 	c #C2C647",
"n 	c #D2D637",
"o 	c #E0E232",
"p 	c #CCD037",
"q 	c #C2C637",
"r 	c #CBD040",
"s 	c #C0C53F",
"t 	c #C3C745",
"u 	c #C4C83C",
"v 	c #CBCF41",
"w 	c #C5CA42",
"x 	c #C5C942",
"y 	c #C4C945",
"z 	c #BAC246",
"A 	c #748330",
"B 	c #7E8E5F",
"C 	c #839579",
"D 	c #829480",
"E 	c #86997E",
"F 	c #90A172",
"G 	c #A3B05C",
"H 	c #C1C848",
"I 	c #C5CA4E",
"J 	c #B2B86D",
"K 	c #BEC349",
"L 	c #BEC44A",
"M 	c #C0C64C",
"N 	c #C2C740",
"O 	c #C7CB42",
"P 	c #C4C940",
"Q 	c #D3D733",
"R 	c #E2E52D",
"S 	c #D7DB37",
"T 	c #C8CB36",
"U 	c #D8DC2D",
"V 	c #E2E52E",
"W 	c #DADC2E",
"X 	c #D8DA2A",
"Y 	c #909D32",
"Z 	c #182C0E",
"` 	c #061707",
" .	c #091809",
"..	c #495748",
"+.	c #889687",
"@.	c #879786",
"#.	c #869786",
"$.	c #859685",
"%.	c #86987C",
"&.	c #AEBB5D",
"*.	c #AEB572",
"=.	c #BFC447",
"-.	c #C0C648",
";.	c #C1C648",
">.	c #C1C646",
",.	c #C1C645",
"'.	c #C2C746",
").	c #CCD035",
"!.	c #DCE02D",
"~.	c #D5D830",
"{.	c #D4D834",
"].	c #DEE022",
"^.	c #E5E827",
"/.	c #D8DA21",
"(.	c #98A939",
"_.	c #0E210E",
":.	c #081809",
"<.	c #08170A",
"[.	c #091709",
"}.	c #091708",
"|.	c #364636",
"1.	c #869788",
"2.	c #879688",
"3.	c #889688",
"4.	c #859485",
"5.	c #7E8F7E",
"6.	c #A4B37C",
"7.	c #BFC544",
"8.	c #C0C544",
"9.	c #C0C644",
"0.	c #C2C845",
"a.	c #C4C946",
"b.	c #C8CD42",
"c.	c #C6CB38",
"d.	c #D9DC2E",
"e.	c #EEF127",
"f.	c #DDE02A",
"g.	c #CDD136",
"h.	c #9EAC40",
"i.	c #203422",
"j.	c #0C1B0C",
"k.	c #09180A",
"l.	c #081608",
"m.	c #081708",
"n.	c #081808",
"o.	c #081607",
"p.	c #384637",
"q.	c #869486",
"r.	c #849284",
"s.	c #808D80",
"t.	c #7A8A7C",
"u.	c #8BA07C",
"v.	c #C0C641",
"w.	c #C0C642",
"x.	c #C2C742",
"y.	c #C4C841",
"z.	c #C4CA43",
"A.	c #C5CB44",
"B.	c #C6CC46",
"C.	c #C6CC42",
"D.	c #D3D737",
"E.	c #DADD2A",
"F.	c #D0D434",
"G.	c #4B603F",
"H.	c #172716",
"I.	c #101E0F",
"J.	c #081707",
"K.	c #081A08",
"L.	c #071807",
"M.	c #081806",
"N.	c #526351",
"O.	c #869586",
"P.	c #869485",
"Q.	c #809080",
"R.	c #768B76",
"S.	c #C0C640",
"T.	c #C2C841",
"U.	c #C6CA3E",
"V.	c #CBCF3C",
"W.	c #C9CC3C",
"X.	c #C8CC41",
"Y.	c #CCD036",
"Z.	c #CED235",
"`.	c #CACD37",
" +	c #95A447",
".+	c #243624",
"++	c #162717",
"@+	c #122313",
"#+	c #071808",
"$+	c #061807",
"%+	c #0B1D0C",
"&+	c #192A19",
"*+	c #849382",
"=+	c #8F9D8D",
"-+	c #8A9A8A",
";+	c #849484",
">+	c #728374",
",+	c #3E543E",
"'+	c #C1C53D",
")+	c #C5C93F",
"!+	c #CCD030",
"~+	c #E4E624",
"{+	c #E3E52C",
"]+	c #CED237",
"^+	c #CFD234",
"/+	c #DEDF28",
"(+	c #DDDF28",
"_+	c #E0E32C",
":+	c #E1E429",
"<+	c #6A8042",
"[+	c #162818",
"}+	c #172918",
"|+	c #152615",
"1+	c #081908",
"2+	c #0E1F0E",
"3+	c #142515",
"4+	c #182718",
"5+	c #172717",
"6+	c #384738",
"7+	c #8A998A",
"8+	c #849686",
"9+	c #809181",
"0+	c #415244",
"a+	c #122814",
"b+	c #C8CC38",
"c+	c #D9DC27",
"d+	c #F7F91C",
"e+	c #EFF021",
"f+	c #CFD430",
"g+	c #CDD22E",
"h+	c #E9EC24",
"i+	c #EAEC1C",
"j+	c #EAEC1E",
"k+	c #E9EA22",
"l+	c #3F5934",
"m+	c #172818",
"n+	c #0D1E0E",
"o+	c #0E2010",
"p+	c #142614",
"q+	c #162716",
"r+	c #172617",
"s+	c #182616",
"t+	c #172516",
"u+	c #697768",
"v+	c #798778",
"w+	c #384837",
"x+	c #182818",
"y+	c #0A2309",
"z+	c #C8CE3C",
"A+	c #C6CC39",
"B+	c #CED22C",
"C+	c #D6D825",
"D+	c #D6D82E",
"E+	c #CACE2E",
"F+	c #CFD327",
"G+	c #DFE11C",
"H+	c #D6DA22",
"I+	c #D4D72A",
"J+	c #CCCF24",
"K+	c #304D30",
"L+	c #182816",
"M+	c #172816",
"N+	c #122312",
"O+	c #0C1D0D",
"P+	c #162616",
"Q+	c #162615",
"R+	c #182717",
"S+	c #425242",
"T+	c #1C2C1C",
"U+	c #162516",
"V+	c #021C02",
"W+	c #CACE3A",
"X+	c #CAD038",
"Y+	c #CED232",
"Z+	c #C6CA2D",
"`+	c #C7CC34",
" @	c #CACD2A",
".@	c #DFE11D",
"+@	c #EFF014",
"@@	c #DEE01D",
"#@	c #C7CA26",
"$@	c #CACC2B",
"%@	c #38562F",
"&@	c #182A18",
"*@	c #10200E",
"=@	c #0A1909",
"-@	c #162415",
";@	c #172817",
">@	c #394A3A",
",@	c #6A7A6A",
"'@	c #728272",
")@	c #213222",
"!@	c #152314",
"~@	c #102808",
"{@	c #869042",
"]@	c #CACE34",
"^@	c #D9DC2C",
"/@	c #E6EA27",
"(@	c #CFD223",
"_@	c #CDD035",
":@	c #CBCE2B",
"<@	c #E4E519",
"[@	c #F1F10E",
"}@	c #DBDC1A",
"|@	c #CBCB26",
"1@	c #CACC2A",
"2@	c #54722F",
"3@	c #0C200D",
"4@	c #0A1D0A",
"5@	c #0A1C0A",
"6@	c #0A1A08",
"7@	c #0C1E0B",
"8@	c #182C18",
"9@	c #213320",
"0@	c #415240",
"a@	c #647462",
"b@	c #6E806D",
"c@	c #6E7D6D",
"d@	c #6B7A6B",
"e@	c #384839",
"f@	c #152617",
"g@	c #122212",
"h@	c #324C0B",
"i@	c #92AF1E",
"j@	c #C6C92C",
"k@	c #DADC20",
"l@	c #F3F31D",
"m@	c #DCDD1C",
"n@	c #CCCE26",
"o@	c #D2D426",
"p@	c #E4E41B",
"q@	c #E5E616",
"r@	c #D7D824",
"s@	c #CED02C",
"t@	c #CDD02B",
"u@	c #819326",
"v@	c #112611",
"w@	c #091C09",
"x@	c #112411",
"y@	c #233623",
"z@	c #425442",
"A@	c #627462",
"B@	c #647664",
"C@	c #637564",
"D@	c #647463",
"E@	c #627162",
"F@	c #5F6E5F",
"G@	c #465747",
"H@	c #192B19",
"I@	c #0F220F",
"J@	c #6C8308",
"K@	c #ADC923",
"L@	c #CED024",
"M@	c #CDCF1F",
"N@	c #D7DA25",
"O@	c #CCCE20",
"P@	c #CDD02E",
"Q@	c #CED12C",
"R@	c #D6D824",
"S@	c #D2D31E",
"T@	c #CED028",
"U@	c #CFD22C",
"V@	c #D0D42E",
"W@	c #C6CC2E",
"X@	c #1A320C",
"Y@	c #1E301F",
"Z@	c #2C3E2E",
"`@	c #384838",
" #	c #3E4C3D",
".#	c #424E41",
"+#	c #4E5A4E",
"@#	c #546054",
"##	c #535F54",
"$#	c #535E54",
"%#	c #515C52",
"&#	c #4F5A4F",
"*#	c #3E4B3F",
"=#	c #152216",
"-#	c #132A04",
";#	c #C5D30C",
">#	c #B6CF24",
",#	c #E4E625",
"'#	c #CED01A",
")#	c #CDCF28",
"!#	c #CDCE27",
"~#	c #CDCE29",
"{#	c #CCCE29",
"]#	c #CACC26",
"^#	c #CED02A",
"/#	c #D2D52E",
"(#	c #D2D429",
"_#	c #D0D326",
":#	c #D1D426",
"<#	c #86951E",
"[#	c #19301A",
"}#	c #263626",
"|#	c #293729",
"1#	c #2E392E",
"2#	c #313B32",
"3#	c #353C34",
"4#	c #424842",
"5#	c #464C46",
"6#	c #454B45",
"7#	c #434942",
"8#	c #40463E",
"9#	c #343D34",
"0#	c #081508",
"a#	c #969B0B",
"b#	c #F4F30F",
"c#	c #CAD414",
"d#	c #F5F51B",
"e#	c #E6E61E",
"f#	c #D4D62A",
"g#	c #D1D42F",
"h#	c #D1D42C",
"i#	c #D0D228",
"j#	c #D0D225",
"k#	c #CED522",
"l#	c #C9D41D",
"m#	c #CAD41A",
"n#	c #C8D216",
"o#	c #6B8112",
"p#	c #1C2F1C",
"q#	c #232E24",
"r#	c #212B22",
"s#	c #222A22",
"t#	c #242A24",
"u#	c #262A26",
"v#	c #313330",
"w#	c #343734",
"x#	c #323732",
"y#	c #313730",
"z#	c #1E281E",
"A#	c #744F04",
"B#	c #EBB20A",
"C#	c #F1C212",
"D#	c #D4A204",
"E#	c #B8AB22",
"F#	c #DDDF19",
"G#	c #DBDC1E",
"H#	c #D0D222",
"I#	c #CDD023",
"J#	c #CED224",
"K#	c #CCD220",
"L#	c #D0D722",
"M#	c #D0D61F",
"N#	c #C6D213",
"O#	c #C0CF0C",
"P#	c #C2CC0D",
"Q#	c #C7CA0E",
"R#	c #C6C00B",
"S#	c #CEB70C",
"T#	c #827408",
"U#	c #2B361A",
"V#	c #212920",
"W#	c #20261F",
"X#	c #20241F",
"Y#	c #1F221E",
"Z#	c #1F211E",
"`#	c #242724",
" $	c #2B302B",
".$	c #353F2C",
"+$	c #A29E50",
"@$	c #F5CF56",
"#$	c #E99D1C",
"$$	c #F68503",
"%$	c #F68001",
"&$	c #BD791D",
"*$	c #D0D218",
"=$	c #E3E61E",
"-$	c #DADE19",
";$	c #CFD71A",
">$	c #C2CE10",
",$	c #BECE0B",
"'$	c #BECE0A",
")$	c #C0CD0C",
"!$	c #C5CA0C",
"~$	c #C5BA0A",
"{$	c #C7A20A",
"]$	c #CC8404",
"^$	c #E19115",
"/$	c #F1CE29",
"($	c #F9EA23",
"_$	c #E9DA44",
":$	c #8B7D27",
"<$	c #463F14",
"[$	c #262919",
"}$	c #1A2219",
"|$	c #272818",
"1$	c #503A17",
"2$	c #925C15",
"3$	c #DCAD3E",
"4$	c #FFF77E",
"5$	c #FEFD83",
"6$	c #FFEF74",
"7$	c #EB870A",
"8$	c #FC7C02",
"9$	c #CA7C25",
"0$	c #D3DC0C",
"a$	c #F0F50D",
"b$	c #DCE60A",
"c$	c #BECF06",
"d$	c #BECF09",
"e$	c #C1CE0C",
"f$	c #C6C80C",
"g$	c #C5AD08",
"h$	c #D19203",
"i$	c #DA8708",
"j$	c #E6B038",
"k$	c #FCDE6B",
"l$	c #F4D556",
"m$	c #E3C01D",
"n$	c #FEE021",
"o$	c #F7D536",
"p$	c #EDD34E",
"q$	c #F5DA5C",
"r$	c #FBE26C",
"s$	c #FFE873",
"t$	c #FBD560",
"u$	c #F1901B",
"v$	c #FB7802",
"w$	c #E6820B",
"x$	c #FCE066",
"y$	c #FEFE84",
"z$	c #E6CC53",
"A$	c #E8860D",
"B$	c #EF8116",
"C$	c #C0CF03",
"D$	c #DCE70E",
"E$	c #D3E00B",
"F$	c #C2D006",
"G$	c #C6CA0D",
"H$	c #C6AA08",
"I$	c #D28A02",
"J$	c #E28A0F",
"K$	c #EFC434",
"L$	c #FFF34B",
"M$	c #F0CA3A",
"N$	c #E58D18",
"O$	c #E9A732",
"P$	c #F3D854",
"Q$	c #FEE058",
"R$	c #EDB93D",
"S$	c #F29C24",
"T$	c #EF9C25",
"U$	c #F2CD56",
"V$	c #FFFC85",
"W$	c #FFF17A",
"X$	c #EE9920",
"Y$	c #F47E05",
"Z$	c #F0B237",
"`$	c #FFFA7E",
" %	c #E7E56D",
".%	c #786A0A",
"+%	c #BA801D",
"@%	c #BBD116",
"#%	c #C2D207",
"$%	c #C6CF0A",
"%%	c #C8BA08",
"&%	c #CE8E03",
"*%	c #E18005",
"=%	c #EEB23C",
"-%	c #FFF077",
";%	c #FFF64E",
">%	c #FFED1B",
",%	c #EBC21A",
"'%	c #F9E165",
")%	c #FFF681",
"!%	c #E7AA33",
"~%	c #EA7E07",
"{%	c #EE7D07",
"]%	c #ED840D",
"^%	c #EDB038",
"/%	c #FFEE75",
"(%	c #F8DC63",
"_%	c #EA9A21",
":%	c #EC8C13",
"<%	c #F6CA50",
"[%	c #FFF579",
"}%	c #EECA52",
"|%	c #D4B94F",
"1%	c #66640B",
"2%	c #5D601A",
"3%	c #B6D028",
"4%	c #C4CD09",
"5%	c #CAAD06",
"6%	c #DD8200",
"7%	c #EB8008",
"8%	c #F8CD58",
"9%	c #FFFA85",
"0%	c #F6CD4E",
"a%	c #EE9C0A",
"b%	c #FABC16",
"c%	c #FBE759",
"d%	c #FFFA81",
"e%	c #FFF780",
"f%	c #EACB54",
"g%	c #EEC44B",
"h%	c #FAD860",
"i%	c #FEE66E",
"j%	c #EEC84E",
"k%	c #EA9D24",
"l%	c #E8951A",
"m%	c #F0C449",
"n%	c #FFED73",
"o%	c #F3D057",
"p%	c #E79924",
"q%	c #C67818",
"r%	c #D1B24D",
"s%	c #74740D",
"t%	c #6B7A26",
"u%	c #B7CA2F",
"v%	c #C6AC08",
"w%	c #DE8201",
"x%	c #F77A02",
"y%	c #F8BA43",
"z%	c #FFFB84",
"A%	c #FFFA83",
"B%	c #E8A127",
"C%	c #F27E02",
"D%	c #F38403",
"E%	c #F09F24",
"F%	c #EABE45",
"G%	c #E8BF46",
"H%	c #E7BD44",
"I%	c #EAAC32",
"J%	c #EA971C",
"K%	c #EA981E",
"L%	c #E8B73C",
"M%	c #FCDE62",
"N%	c #FCE66C",
"O%	c #ECBF48",
"P%	c #E69624",
"Q%	c #CC7D19",
"R%	c #747A14",
"S%	c #6B761F",
"T%	c #2E3800",
"U%	c #C68917",
"V%	c #F87D02",
"W%	c #F47F04",
"X%	c #F7CC52",
"Y%	c #FFFE85",
"Z%	c #FFFD84",
"`%	c #FCEA6F",
" &	c #EDBB40",
".&	c #F2A228",
"+&	c #F29F26",
"@&	c #EFA127",
"#&	c #EAB238",
"$&	c #E6BE43",
"%&	c #F6D65A",
"&&	c #FEEB6E",
"*&	c #FBDE64",
"=&	c #E8BF48",
"-&	c #E89E28",
";&	c #CC8118",
">&	c #C98A33",
",&	c #6D7A23",
"'&	c #646D1B",
")&	c #9C6818",
"!&	c #F2800C",
"~&	c #EE981B",
"{&	c #A48014",
"]&	c #D0B847",
"^&	c #F8DB60",
"/&	c #FEEA6D",
"(&	c #FFF476",
"_&	c #FFF072",
":&	c #FCE166",
"<&	c #F9DA60",
"[&	c #ECC851",
"}&	c #E7B943",
"|&	c #EAA32E",
"1&	c #DD8E1A",
"2&	c #C57C16",
"3&	c #C68E3A",
"4&	c #647525",
"5&	c #101000",
"6&	c #7E5318",
"7&	c #CAA53D",
"8&	c #726D0E",
"9&	c #8E710A",
"0&	c #D78B18",
"a&	c #E88611",
"b&	c #E58712",
"c&	c #E48915",
"d&	c #DB881B",
"e&	c #D4841B",
"f&	c #CF892F",
"g&	c #BE8C3C",
"h&	c #8E9644",
"i&	c #777719",
"j&	c #7F791F",
"k&	c #685909",
"l&	c #5E4200",
"m&	c #8BA848",
"n&	c #848E2A",
"o&	c #697825",
"p&	c #9EB34F",
"q&	c #7D7E11",
"r&	c #7B7B1A",
"s&	c #7A862E",
"t&	c #93AD52",
"u&	c #969E3E",
"v&	c #6C731A",
"w&	c #7A801B",
"x&	c #706F12",
"y&	c #62701A",
"z&	c #88A540",
"A&	c #656612",
"B&	c #677C24",
"C&	c #67731A",
"D&	c #797A20",
"E&	c #5A6B17",
"F&	c #889833",
"G&	c #6A6A16",
"H&	c #6A7725",
"I&	c #6C7626",
"J&	c #6B7E24",
"K&	c #75761B",
"L&	c #687624",
". + @ # $ % & * = - ; > , ' ) ! ~ { ] ^ / ( _ : <               ",
"[ } | 1 2 3 4 _ 5 6 7 8 9 0 a b c d e f g h i j k               ",
"l = m n o p q r s t u v w x y z A B C D E F G H I J             ",
"K L M N O P Q R S T U V W X Y Z `  ...+.@.#.$.%.&.*.            ",
"=.-.;.>.,.'.).!.~.{.].^./.(._.:.<.[.}.|.1.2.3.4.5.6.            ",
"7.8.8.9.0.a.b.c.d.e.f.g.h.i.j.k.l.m.n.o.p.+.q.r.s.t.u.          ",
"v.w.x.y.z.A.B.C.D.E.F.w.G.H.I.}.o.J.K.L.M.N.$.O.P.Q.R.          ",
"S.T.U.V.W.X.X.W.Y.Z.`. +.+++@+#+#+L.L.$+%+&+*+=+-+;+>+,+        ",
"'+)+!+~+{+]+^+/+(+_+:+<+[+}+|+1+1+1+2+3+4+5+6+7+8+9+0+a+        ",
"u b+c+d+e+f+g+h+i+j+k+l+m+++[+n+o+p+q+r+4+s+t+u+v+w+x+y+        ",
"z+A+B+C+D+E+F+G+H+I+J+K+L+M+N+O+++m+++P+Q+P+R+S+T+U+P+V+        ",
"W+X+Y+Z+`+ @.@+@@@#@$@%@&@*@=@}.-@++[+;@P+>@,@'@)@4+!@~@{@      ",
"]@^@/@(@_@:@<@[@}@|@1@2@3@4@5@6@7@8@9@0@a@b@c@d@e@f@g@h@i@      ",
"j@k@l@m@n@o@p@q@r@s@t@u@v@w@4@x@y@z@A@B@C@D@E@F@G@H@I@J@K@      ",
"L@M@N@O@P@Q@R@S@T@U@V@W@X@Y@Z@`@ #.#+#@###$#%#&#*#=#-#;#>#      ",
",#'#)#!#~#{#]#^#/#(#_#:#<#[#}#|#1#2#3#4#5#6#7#8#9#0#a#b#c#      ",
"d#e#f#g#h#i#L@j#o@k#l#m#n#o#p#q#r#s#t#u#v#w#x#y#z#A#B#C#D#E#    ",
"F#G#H#I#J#K#L#M#N#O#P#Q#R#S#T#U#V#W#X#Y#Z#`# $.$+$@$#$$$%$&$    ",
"*$=$-$;$>$,$'$)$!$~${$]$^$/$($_$:$<$[$}$|$1$2$3$4$5$6$7$8$9$    ",
"0$a$b$c$d$e$f$g$h$i$j$k$l$m$n$o$p$q$r$s$t$u$v$w$x$y$z$A$B$      ",
"C$D$E$F$G$H$I$J$K$L$M$N$O$P$Q$R$S$T$U$V$W$X$Y$Z$`$ %.%+%        ",
"@%#%$%%%&%*%=%-%;%>%,%'%)%!%~%{%]%^%/%(%_%:%<%[%}%|%1%2%        ",
"3%4%5%6%7%8%9%0%a%b%c%d%e%f%g%h%i%j%k%l%m%n%o%p%q%r%s%t%        ",
"u%v%w%x%y%z%A%B%C%D%E%F%G%H%I%J%K%L%M%N%O%P%Q%      R%S%        ",
"T%U%V%W%X%Y%Z%`% &.&+&@&#&$&%&&&*&=&-&;&>&          ,&'&        ",
"  )&!&~&{&]&^&/&(&_&:&<&[&}&|&1&2&3&                  4&        ",
"  5&6&7&8&9&0&a&b&c&d&e&f&g&                                    ",
"      h&i&j&k&l&                                      m&n&o&    ",
"      p&q&r&s&                                        t&u&v&    ",
"        w&x&y&                                        z&n&A&B&  ",
"        C&D&E&                                          F&G&H&  ",
"          I&                                            J&K&L&  "};
